 http://www.shotpix.com/images/06353367184912529995.jpg

Will.i.am - Scream And Shout (Ft. Britney Spears) [2012] {M4A+MP4} (1080p) x264 [VX] [P2PDL]

                                1080p Full HD MP4 Video
                                          +
                                128 Kbps/VBR M4A Audio

General
Format                         : MPEG-4
Format profile                 : Base Media / Version 2
Codec ID                       : mp42
File size                      : 56.1 MiB
Duration                       : 4mn 51s

Video
ID                             : 1
Format                         : AVC
Format/Info                    : Advanced Video Codec
Width                          : 1 920 pixels
Height                         : 1 080 pixels
Display aspect ratio           : 16:9
Frame rate mode                : Variable
Frame rate                     : 23.976 fps
Color space                    : YUV
Chroma subsampling             : 4:2:0
Bit depth                      : 8 bits
Scan type                      : Progressive
Bits/(Pixel*Frame)             : 0.030
Stream size                    : 51.6 MiB (92%)
Writing library                : x264 core 128

Audio
ID                             : 2
Format                         : AAC
Format/Info                    : Advanced Audio Codec
Format profile                 : LC
Codec ID                       : 40
Duration                       : 4mn 51s
Bit rate mode                  : Variable
Bit rate                       : 125 Kbps
Maximum bit rate               : 161 Kbps
Channel(s)                     : 2 channels
Channel positions              : Front: L R
Sampling rate                  : 48.0 KHz
Compression mode               : Lossy
Stream size                    : 4.34 MiB (8%)

Subtitles                      : No

Screens:
 
http://www.shotpix.com/images/23201856898583161394.jpg 
http://www.shotpix.com/images/54392751253765090087.jpg

Thumbs:
 
http://www.shotpix.com/images/71249100561321187649.jpg

-----------------------------------------------------------------------------------------

Notes:

* Recommended to use latest version VLC Media Player.
* Install shark007 codecs in case of any kind of problem in playback (For non-VLC Media Player users).
* Alternatively, install Core AVC codecs, the fastest decoder that there is coupled with Community Center Codec Pack and play on Windows Media Player Classic.

Greets to: VYTO, a2zRG, suzitastik, Sheychi, Chew,staff members at ExtraTorrent, TPB,KAT, 1337x, PublicHD, Ahashare, TorrentMafia, BTScene, P2PDL, and all others

Encoder Notes: Looking For Early Access To Anything You Can Provide DVDScr, R5, DVDRips, BluRay, Direct Audio, Early Music
Releases, Seedboxes, Links, Dedicated Servers anything u can provide, Advance / Promo CDs/DVDs. If You Got anything to
offer contact me at "prg@hush.com"